<svg viewBox="0 0 270.9100036621094 42" xmlns="http://www.w3.org/2000/svg" data-logo="logo">
        <g transform="translate(0, 0.5)
    rotate(0 33.5 20.5)" id="logogram" style="opacity: 1;"><path fill="#4845D2" d="M0.452637 20.81C0.452637 9.76427 9.40694 0.809967 20.4526 0.809967H46.7026C57.7484 0.809967 66.7026 9.76427 66.7026 20.81V40.81H20.4526C9.40694 40.81 0.452637 31.8557 0.452637 20.81Z"></path><path fill="#A5B4FC" d="M46.7026 8.30997H20.4526C13.5491 8.30997 7.95264 13.9064 7.95264 20.81C7.95264 27.7135 13.5491 33.31 20.4526 33.31H46.7026C53.6062 33.31 59.2026 27.7135 59.2026 20.81C59.2026 13.9064 53.6062 8.30997 46.7026 8.30997Z"></path><path fill="black" d="M20.4526 27.06C23.9044 27.06 26.7026 24.2617 26.7026 20.81C26.7026 17.3582 23.9044 14.56 20.4526 14.56C17.0009 14.56 14.2026 17.3582 14.2026 20.81C14.2026 24.2617 17.0009 27.06 20.4526 27.06Z"></path><path fill="white" d="M17.9526 19.56C18.643 19.56 19.2026 19.0003 19.2026 18.31C19.2026 17.6196 18.643 17.06 17.9526 17.06C17.2623 17.06 16.7026 17.6196 16.7026 18.31C16.7026 19.0003 17.2623 19.56 17.9526 19.56Z"></path><path fill="black" d="M47.9526 27.06C51.4044 27.06 54.2026 24.2617 54.2026 20.81C54.2026 17.3582 51.4044 14.56 47.9526 14.56C44.5009 14.56 41.7026 17.3582 41.7026 20.81C41.7026 24.2617 44.5009 27.06 47.9526 27.06Z"></path><path fill="white" d="M45.4526 19.56C46.143 19.56 46.7026 19.0003 46.7026 18.31C46.7026 17.6196 46.143 17.06 45.4526 17.06C44.7623 17.06 44.2026 17.6196 44.2026 18.31C44.2026 19.0003 44.7623 19.56 45.4526 19.56Z"></path></g>
        <g transform="translate(73, 7.81201171875)" id="logotype" style="opacity: 1;"><path d="M17.25 26L17.25 26L10.67 26L10.67 21.51L17.01 21.51Q19.47 21.51 21.13 20.63Q22.80 19.76 23.64 17.93Q24.47 16.10 24.47 13.25L24.47 13.25Q24.47 10.41 23.63 8.59Q22.78 6.77 21.13 5.90Q19.48 5.03 17.04 5.03L17.04 5.03L10.55 5.03L10.55 0.54L17.35 0.54Q21.18 0.54 23.94 2.07Q26.70 3.60 28.18 6.44Q29.67 9.29 29.67 13.25L29.67 13.25Q29.67 17.23 28.18 20.09Q26.70 22.94 23.91 24.47Q21.12 26 17.25 26ZM8.31 0.54L13.52 0.54L13.52 26L8.31 26L8.31 0.54ZM39.82 26.38L39.82 26.38Q36.90 26.38 34.78 25.18Q32.66 23.98 31.52 21.78Q30.39 19.57 30.39 16.55L30.39 16.55Q30.39 13.59 31.51 11.37Q32.64 9.15 34.71 7.90Q36.78 6.65 39.56 6.65L39.56 6.65Q41.44 6.65 43.07 7.25Q44.69 7.85 45.92 9.06Q47.15 10.26 47.84 12.07Q48.53 13.88 48.53 16.34L48.53 16.34L48.53 17.78L32.49 17.78L32.49 14.57L46.02 14.57L43.63 15.42Q43.63 13.93 43.18 12.83Q42.72 11.73 41.83 11.12Q40.93 10.52 39.60 10.52L39.60 10.52Q38.28 10.52 37.35 11.13Q36.42 11.75 35.94 12.80Q35.46 13.85 35.46 15.20L35.46 15.20L35.46 17.47Q35.46 19.13 36.02 20.26Q36.57 21.39 37.57 21.95Q38.57 22.51 39.90 22.51L39.90 22.51Q40.81 22.51 41.54 22.26Q42.28 22.00 42.80 21.50Q43.32 20.99 43.60 20.26L43.60 20.26L48.24 21.13Q47.78 22.70 46.64 23.89Q45.49 25.08 43.78 25.73Q42.06 26.38 39.82 26.38ZM60.97 26L55.15 26L48.11 6.89L53.56 6.89L56.77 16.81Q57.35 18.67 57.79 20.57Q58.22 22.46 58.68 24.50L58.68 24.50L57.59 24.50Q58.03 22.46 58.46 20.57Q58.89 18.67 59.47 16.81L59.47 16.81L62.65 6.89L68.03 6.89L60.97 26ZM79.72 26.34L79.72 26.34Q76.34 26.34 73.66 24.80Q70.99 23.27 69.44 20.34Q67.89 17.42 67.89 13.29L67.89 13.29Q67.89 9.13 69.45 6.20Q71.00 3.27 73.69 1.73Q76.37 0.19 79.72 0.19L79.72 0.19Q81.89 0.19 83.76 0.80Q85.63 1.41 87.09 2.57Q88.54 3.73 89.46 5.42Q90.38 7.10 90.67 9.23L90.67 9.23L85.39 9.23Q85.22 8.19 84.74 7.38Q84.25 6.57 83.52 6.00Q82.80 5.42 81.86 5.12Q80.92 4.83 79.82 4.83L79.82 4.83Q77.84 4.83 76.34 5.82Q74.83 6.81 74.01 8.70Q73.19 10.58 73.19 13.29L73.19 13.29Q73.19 16.04 74.03 17.92Q74.87 19.80 76.35 20.75Q77.84 21.71 79.80 21.71L79.80 21.71Q80.90 21.71 81.83 21.41Q82.76 21.11 83.50 20.54Q84.25 19.97 84.74 19.15Q85.22 18.33 85.41 17.30L85.41 17.30L90.69 17.30Q90.49 19.06 89.64 20.69Q88.79 22.31 87.39 23.59Q85.99 24.87 84.06 25.61Q82.13 26.34 79.72 26.34ZM100.64 26.38L100.64 26.38Q97.76 26.38 95.66 25.14Q93.56 23.90 92.42 21.68Q91.29 19.47 91.29 16.53L91.29 16.53Q91.29 13.56 92.42 11.35Q93.56 9.13 95.66 7.89Q97.76 6.65 100.64 6.65L100.64 6.65Q103.52 6.65 105.62 7.89Q107.71 9.13 108.85 11.35Q109.98 13.56 109.98 16.53L109.98 16.53Q109.98 19.47 108.85 21.68Q107.71 23.90 105.62 25.14Q103.52 26.38 100.64 26.38ZM100.64 22.34L100.64 22.34Q102.00 22.34 102.93 21.58Q103.85 20.82 104.31 19.50Q104.77 18.17 104.77 16.52L104.77 16.52Q104.77 14.82 104.31 13.51Q103.85 12.19 102.93 11.44Q102.00 10.69 100.64 10.69L100.64 10.69Q99.27 10.69 98.35 11.44Q97.44 12.19 96.98 13.51Q96.52 14.82 96.52 16.52L96.52 16.52Q96.52 18.17 96.98 19.50Q97.44 20.82 98.35 21.58Q99.27 22.34 100.64 22.34ZM116.41 14.94L116.41 14.94L116.41 26L111.28 26L111.28 6.89L116.12 6.89L116.20 11.66L115.89 11.66Q116.65 9.27 118.18 7.96Q119.71 6.65 122.13 6.65L122.13 6.65Q124.11 6.65 125.58 7.52Q127.05 8.38 127.87 10.00Q128.69 11.61 128.69 13.85L128.69 13.85L128.69 26L123.57 26L123.57 14.74Q123.57 12.96 122.65 11.95Q121.74 10.94 120.12 10.94L120.12 10.94Q119.04 10.94 118.19 11.41Q117.35 11.88 116.88 12.77Q116.41 13.66 116.41 14.94ZM135.92 14.94L135.92 14.94L135.92 26L130.79 26L130.79 6.89L135.63 6.89L135.72 11.66L135.41 11.66Q136.16 9.27 137.69 7.96Q139.22 6.65 141.65 6.65L141.65 6.65Q143.63 6.65 145.10 7.52Q146.57 8.38 147.39 10.00Q148.21 11.61 148.21 13.85L148.21 13.85L148.21 26L143.08 26L143.08 14.74Q143.08 12.96 142.17 11.95Q141.25 10.94 139.63 10.94L139.63 10.94Q138.55 10.94 137.71 11.41Q136.86 11.88 136.39 12.77Q135.92 13.66 135.92 14.94ZM158.94 26.38L158.94 26.38Q156.02 26.38 153.90 25.18Q151.78 23.98 150.64 21.78Q149.51 19.57 149.51 16.55L149.51 16.55Q149.51 13.59 150.63 11.37Q151.76 9.15 153.83 7.90Q155.90 6.65 158.68 6.65L158.68 6.65Q160.56 6.65 162.19 7.25Q163.81 7.85 165.04 9.06Q166.27 10.26 166.96 12.07Q167.66 13.88 167.66 16.34L167.66 16.34L167.66 17.78L151.61 17.78L151.61 14.57L165.14 14.57L162.75 15.42Q162.75 13.93 162.30 12.83Q161.85 11.73 160.95 11.12Q160.05 10.52 158.72 10.52L158.72 10.52Q157.40 10.52 156.47 11.13Q155.54 11.75 155.06 12.80Q154.58 13.85 154.58 15.20L154.58 15.20L154.58 17.47Q154.58 19.13 155.14 20.26Q155.69 21.39 156.69 21.95Q157.69 22.51 159.03 22.51L159.03 22.51Q159.93 22.51 160.67 22.26Q161.40 22.00 161.92 21.50Q162.44 20.99 162.72 20.26L162.72 20.26L167.37 21.13Q166.90 22.70 165.76 23.89Q164.61 25.08 162.90 25.73Q161.18 26.38 158.94 26.38ZM177.43 26.38L177.43 26.38Q174.54 26.38 172.45 25.14Q170.35 23.90 169.22 21.68Q168.08 19.47 168.08 16.53L168.08 16.53Q168.08 13.56 169.22 11.35Q170.35 9.13 172.45 7.89Q174.54 6.65 177.43 6.65L177.43 6.65Q179.12 6.65 180.56 7.10Q181.99 7.54 183.10 8.36Q184.21 9.18 184.93 10.36Q185.65 11.54 185.92 13.01L185.92 13.01L181.15 13.90Q181.00 13.15 180.68 12.56Q180.35 11.97 179.89 11.55Q179.43 11.13 178.82 10.91Q178.22 10.69 177.48 10.69L177.48 10.69Q176.11 10.69 175.18 11.42Q174.25 12.16 173.78 13.47Q173.31 14.79 173.31 16.52L173.31 16.52Q173.31 18.22 173.78 19.53Q174.25 20.84 175.18 21.59Q176.11 22.34 177.48 22.34L177.48 22.34Q178.22 22.34 178.83 22.11Q179.45 21.88 179.92 21.45Q180.40 21.01 180.73 20.39Q181.05 19.78 181.19 19.01L181.19 19.01L185.96 19.88Q185.68 21.40 184.97 22.59Q184.25 23.78 183.14 24.63Q182.03 25.49 180.58 25.93Q179.14 26.38 177.43 26.38ZM185.36 6.89L196.69 6.89L196.69 10.81L185.36 10.81L185.36 6.89ZM187.99 20.86L187.99 2.35L193.12 2.35L193.12 20.41Q193.12 21.32 193.52 21.75Q193.92 22.19 194.86 22.19L194.86 22.19Q195.15 22.19 195.68 22.11Q196.21 22.04 196.48 21.97L196.48 21.97L197.22 25.81Q196.36 26.07 195.52 26.17Q194.67 26.27 193.90 26.27L193.90 26.27Q191.03 26.27 189.51 24.87Q187.99 23.47 187.99 20.86L187.99 20.86Z" fill="#ffffff"></path></g>
        
      </svg>